<svg width="20" height="16" viewBox="0 0 20 16" fill="none" xmlns="http://www.w3.org/2000/svg">
<path d="M9.73484 4.03476L3.3336 9.30692V14.9971C3.3336 15.1444 3.39212 15.2857 3.4963 15.3899C3.60048 15.4941 3.74178 15.5526 3.88911 15.5526L7.77978 15.5426C7.92663 15.5418 8.06722 15.483 8.17079 15.3789C8.27437 15.2748 8.33252 15.1339 8.33252 14.987V11.664C8.33252 11.5167 8.39104 11.3754 8.49522 11.2712C8.5994 11.167 8.7407 11.1085 8.88803 11.1085H11.1101C11.2574 11.1085 11.3987 11.167 11.5029 11.2712C11.6071 11.3754 11.6656 11.5167 11.6656 11.664V14.9846C11.6654 15.0577 11.6796 15.1301 11.7074 15.1977C11.7352 15.2653 11.7761 15.3268 11.8277 15.3785C11.8793 15.4303 11.9406 15.4714 12.0081 15.4994C12.0756 15.5274 12.148 15.5419 12.2211 15.5419L16.1104 15.5526C16.2577 15.5526 16.399 15.4941 16.5032 15.3899C16.6074 15.2857 16.6659 15.1444 16.6659 14.9971V9.3031L10.266 4.03476C10.1908 3.97411 10.0971 3.94104 10.0004 3.94104C9.90381 3.94104 9.81008 3.97411 9.73484 4.03476ZM19.8462 7.61816L16.9437 5.22564V0.416635C16.9437 0.306136 16.8998 0.200164 16.8216 0.12203C16.7435 0.0438954 16.6375 0 16.527 0H14.5827C14.4722 0 14.3663 0.0438954 14.2881 0.12203C14.21 0.200164 14.1661 0.306136 14.1661 0.416635V2.93762L11.0577 0.380179C10.7593 0.134705 10.385 0.000490707 9.99871 0.000490707C9.61239 0.000490707 9.23807 0.134705 8.93976 0.380179L0.151203 7.61816C0.109015 7.65303 0.0741102 7.69587 0.0484844 7.74424C0.0228586 7.7926 0.00701361 7.84554 0.00185477 7.90003C-0.00330407 7.95452 0.00232436 8.0095 0.0184184 8.06181C0.0345125 8.11413 0.0607569 8.16276 0.0956519 8.20492L0.981 9.28123C1.0158 9.32355 1.0586 9.35858 1.10696 9.38433C1.15532 9.41008 1.20828 9.42604 1.26282 9.4313C1.31735 9.43656 1.37239 9.43101 1.42477 9.41497C1.47716 9.39893 1.52587 9.37271 1.56811 9.33782L9.73484 2.61126C9.81008 2.55061 9.90381 2.51754 10.0004 2.51754C10.0971 2.51754 10.1908 2.55061 10.266 2.61126L18.4331 9.33782C18.4753 9.37272 18.5239 9.39896 18.5762 9.41506C18.6286 9.43115 18.6835 9.43678 18.738 9.43162C18.7925 9.42646 18.8455 9.41062 18.8938 9.38499C18.9422 9.35936 18.985 9.32446 19.0199 9.28227L19.9052 8.20597C19.9401 8.16355 19.9662 8.11467 19.9821 8.06213C19.998 8.00959 20.0034 7.95442 19.9979 7.89979C19.9924 7.84517 19.9762 7.79217 19.9502 7.74384C19.9241 7.69551 19.8888 7.6528 19.8462 7.61816Z" fill="#AD4970"/>
</svg>
